{"title":"Polina - WOW Orgasms - Sweet hottie enjoys getting unstoppable o","uid":9823805,"size":256662682,"categoryP":"porn","categoryS":"movie_clips","magnet":"?xt=urn:btih:6cdd4a197462774cd29dfd8aa24b05be3060388d&amp;dn=Polina+-+WOW+Orgasms+-+Sweet+hottie+enjoys+getting+unstoppable+o&amp;tr=udp%3A%2F%2Ftracker.openbittorrent.com%3A80&amp;tr=udp%3A%2F%2Fopen.demonii.com%3A1337&amp;tr=udp%3A%2F%2Ftracker.coppersurfer.tk%3A6969&amp;tr=udp%3A%2F%2Fexodus.desync.com%3A6969","seeders":8,"leechers":0,"uploader":"athklym","files":-1,"time":1395740345,"description":" &lt;a href=&quot;http://bayimg.com/faMfJAaFl&quot; rel=&quot;nofollow&quot; target=&quot;_NEW&quot;&gt;http://bayimg.com/faMfJAaFl&lt;/a&gt;\nPolina's body is simply amazing. She looks like an angel and I can't believe that such babes exist. Her boyfriend is really lucky to have a chance of fucking such a beautiful teenage cutie in all possible positions Polina is very sensual and her pussy knows how to get pleasure from sex and how to climax. This is really amazing video and you shouldn't miss it.\n\nPolina_WOW-Orgasms.mkv\nFormat                                   : Matroska\nFormat version                           : Version 2\nFile size                                : 245 MiB\nDuration                                 : 20mn 42s\nOverall bit rate                         : 1 652 Kbps\nWriting application                      : Lavf52.37.0\nWriting library                          : Lavf52.37.0\n\nVideo\nID                                       : 1\nFormat                                   : AVC\nFormat/Info                              : Advanced Video Codec\nFormat profile                           : &lt;a class=&quot;__cf_email__&quot; href=&quot;/cdn-cgi/l/email-protection&quot; data-cfemail=&quot;125a7b757a525e213c22&quot;&gt;[email&amp;#160;protected]&lt;/a&gt;&lt;script cf-hash='f9e31' type=&quot;text/javascript&quot;&gt;\n/* &lt;![CDATA[ */!function(){try{var t=&quot;currentScript&quot;in document?document.currentScript:function(){for(var t=document.getElementsByTagName(&quot;script&quot;),e=t.length;e--;)if(t[e].getAttribute(&quot;cf-hash&quot;))return t[e]}();if(t&amp;&amp;t.previousSibling){var e,r,n,i,c=t.previousSibling,a=c.getAttribute(&quot;data-cfemail&quot;);if(a){for(e=&quot;&quot;,r=parseInt(a.substr(0,2),16),n=2;a.length-n;n+=2)i=parseInt(a.substr(n,2),16)^r,e+=String.fromCharCode(i);e=document.createTextNode(e),c.parentNode.replaceChild(e,c)}}}catch(u){}}();/* ]]&gt; */&lt;/script&gt;\nFormat settings, CABAC                   : Yes\nFormat settings, ReFrames                : 3 frames\nCodec ID                                 : V_MPEG4/ISO/AVC\nDuration                                 : 20mn 42s\nBit rate                                 : 1 600 Kbps\nWidth                                    : 720 pixels\nHeight                                   : 406 pixels\nDisplay aspect ratio                     : 16:9\nFrame rate mode                          : Constant\nFrame rate                               : 23.976 fps\nColor space                              : YUV\nChroma subsampling                       : 4:2:0\nBit depth                                : 8 bits\nScan type                                : Progressive\nBits/(Pixel*Frame)                       : 0.228\nStream size                              : 233 MiB (95%)\nWriting library                          : x264 core 1191.0\nEncoding settings                        : cabac=1 / ref=3 / deblock=1:0:0 / analyse=0x3:0x113 / me=hex / subme=7 / psy=1 / psy_rd=1.00:0.00 / mixed_ref=1 / me_range=16 / chroma_me=1 / trellis=1 / 8x8dct=1 / cqm=0 / deadzone=21,11 / fast_pskip=1 / chroma_qp_offset=-2 / threads=24 / sliced_threads=0 / nr=0 / decimate=1 / interlaced=0 / bluray_compat=0 / constrained_intra=0 / bframes=0 / weightp=2 / keyint=100 / keyint_min=10 / scenecut=40 / intra_refresh=0 / rc_lookahead=40 / rc=abr / mbtree=1 / bitrate=1600 / ratetol=1.0 / qcomp=0.60 / qpmin=0 / qpmax=69 / qpstep=4 / ip_ratio=1.40 / aq=1:1.00\nDefault                                  : Yes\nForced                                   : No\n\nAudio\nID                                       : 2\nFormat                                   : MPEG Audio\nFormat version                           : Version 2\nFormat profile                           : Layer 3\nMode                                     : Joint stereo\nMode extension                           : MS Stereo\nCodec ID                                 : A_MPEG/L3\nCodec ID/Hint                            : MP3\nDuration                                 : 20mn 42s\nBit rate mode                            : Constant\nBit rate                                 : 48.0 Kbps\nChannel count                            : 2 channels\nSampling rate                            : 16.0 KHz\nCompression mode                         : Lossy\nStream size                              : 7.11 MiB (3%)\nWriting library                          : LAME3.97\nDefault                                  : Yes\nForced                                   : No\n\n","torrent":{"xt":"urn:btih:6cdd4a197462774cd29dfd8aa24b05be3060388d","amp;dn":"Polina+-+WOW+Orgasms+-+Sweet+hottie+enjoys+getting+unstoppable+o","amp;tr":["udp%3A%2F%2Ftracker.openbittorrent.com%3A80","udp%3A%2F%2Fopen.demonii.com%3A1337","udp%3A%2F%2Ftracker.coppersurfer.tk%3A6969","udp%3A%2F%2Fexodus.desync.com%3A6969"],"infoHash":"6cdd4a197462774cd29dfd8aa24b05be3060388d","infoHashBuffer":{"type":"Buffer","data":[108,221,74,25,116,98,119,76,210,157,253,138,162,75,5,190,48,96,56,141]},"announce":[],"urlList":[]}}